<?xml version="1.0" standalone="no"?><!DOCTYPE svg PUBLIC "-//W3C//DTD SVG 1.1//EN" "http://www.w3.org/Graphics/SVG/1.1/DTD/svg11.dtd"><svg t="1555138941058" class="icon" style="" viewBox="0 0 1024 1024" version="1.1" xmlns="http://www.w3.org/2000/svg" p-id="23872" xmlns:xlink="http://www.w3.org/1999/xlink" width="200" height="200"><defs><style type="text/css"></style></defs><path d="M415.744 477.184H61.44c-33.792 0-61.44-27.648-61.44-61.44V61.44C0 27.648 27.648 0 61.44 0h354.304c33.792 0 61.44 27.648 61.44 61.44v354.304c0 33.792-27.648 61.44-61.44 61.44zM962.56 477.184h-354.304c-33.792 0-61.44-27.648-61.44-61.44V61.44c0-33.792 27.648-61.44 61.44-61.44H962.56c33.792 0 61.44 27.648 61.44 61.44v354.304c0 33.792-27.648 61.44-61.44 61.44zM415.744 1024H61.44c-33.792 0-61.44-27.648-61.44-61.44v-354.304c0-33.792 27.648-61.44 61.44-61.44h354.304c33.792 0 61.44 27.648 61.44 61.44V962.56c0 33.792-27.648 61.44-61.44 61.44zM977.92 638.976h-385.024c-25.6 0-46.08-20.48-46.08-46.08s20.48-46.08 46.08-46.08H977.92c25.6 0 46.08 20.48 46.08 46.08 0 25.088-20.48 46.08-46.08 46.08zM977.92 831.488h-385.024c-25.6 0-46.08-20.48-46.08-46.08s20.48-46.08 46.08-46.08H977.92c25.6 0 46.08 20.48 46.08 46.08 0 25.088-20.48 46.08-46.08 46.08zM977.92 1024h-385.024c-25.6 0-46.08-20.48-46.08-46.08s20.48-46.08 46.08-46.08H977.92c25.6 0 46.08 20.48 46.08 46.08s-20.48 46.08-46.08 46.08z" fill="#ffffff" p-id="23873"></path></svg>