<?xml version="1.0" standalone="no"?><!DOCTYPE svg PUBLIC "-//W3C//DTD SVG 1.1//EN" "http://www.w3.org/Graphics/SVG/1.1/DTD/svg11.dtd"><svg t="1555138923973" class="icon" style="" viewBox="0 0 1024 1024" version="1.1" xmlns="http://www.w3.org/2000/svg" p-id="21886" xmlns:xlink="http://www.w3.org/1999/xlink" width="200" height="200"><defs><style type="text/css"></style></defs><path d="M877.714286 146.285714h73.142857a73.142857 73.142857 0 0 1 73.142857 73.142857v731.428572a73.142857 73.142857 0 0 1-73.142857 73.142857H73.142857a73.142857 73.142857 0 0 1-73.142857-73.142857V219.428571a73.142857 73.142857 0 0 1 73.142857-73.142857h73.142857v36.571429a109.714286 109.714286 0 0 0 219.428572 0V146.285714h292.571428v36.571429a109.714286 109.714286 0 0 0 219.428572 0V146.285714zM256 0a36.571429 36.571429 0 0 1 36.571429 36.571429v146.285714a36.571429 36.571429 0 0 1-73.142858 0v-146.285714a36.571429 36.571429 0 0 1 36.571429-36.571429z m512 0a36.571429 36.571429 0 0 1 36.571429 36.571429v146.285714a36.571429 36.571429 0 1 1-73.142858 0v-146.285714a36.571429 36.571429 0 0 1 36.571429-36.571429z m-512 438.857143a36.571429 36.571429 0 0 0-36.571429 36.571428v73.142858a36.571429 36.571429 0 0 0 36.571429 36.571428h73.142857a36.571429 36.571429 0 0 0 36.571429-36.571428v-73.142858a36.571429 36.571429 0 0 0-36.571429-36.571428h-73.142857z m219.428571 0a36.571429 36.571429 0 0 0-36.571428 36.571428v73.142858a36.571429 36.571429 0 0 0 36.571428 36.571428h73.142858a36.571429 36.571429 0 0 0 36.571428-36.571428v-73.142858a36.571429 36.571429 0 0 0-36.571428-36.571428h-73.142858z m219.428572 0a36.571429 36.571429 0 0 0-36.571429 36.571428v73.142858a36.571429 36.571429 0 0 0 36.571429 36.571428h73.142857a36.571429 36.571429 0 0 0 36.571429-36.571428v-73.142858a36.571429 36.571429 0 0 0-36.571429-36.571428h-73.142857z m-438.857143 219.428571a36.571429 36.571429 0 0 0-36.571429 36.571429v73.142857a36.571429 36.571429 0 0 0 36.571429 36.571429h73.142857a36.571429 36.571429 0 0 0 36.571429-36.571429v-73.142857a36.571429 36.571429 0 0 0-36.571429-36.571429h-73.142857z m219.428571 0a36.571429 36.571429 0 0 0-36.571428 36.571429v73.142857a36.571429 36.571429 0 0 0 36.571428 36.571429h73.142858a36.571429 36.571429 0 0 0 36.571428-36.571429v-73.142857a36.571429 36.571429 0 0 0-36.571428-36.571429h-73.142858z m219.428572 0a36.571429 36.571429 0 0 0-36.571429 36.571429v73.142857a36.571429 36.571429 0 0 0 36.571429 36.571429h73.142857a36.571429 36.571429 0 0 0 36.571429-36.571429v-73.142857a36.571429 36.571429 0 0 0-36.571429-36.571429h-73.142857z" fill="#ffffff" p-id="21887"></path></svg>