<?xml version="1.0" standalone="no"?><!DOCTYPE svg PUBLIC "-//W3C//DTD SVG 1.1//EN" "http://www.w3.org/Graphics/SVG/1.1/DTD/svg11.dtd"><svg t="1555137729037" class="icon" style="" viewBox="0 0 1024 1024" version="1.1" xmlns="http://www.w3.org/2000/svg" p-id="14111" xmlns:xlink="http://www.w3.org/1999/xlink" width="200" height="200"><defs><style type="text/css"></style></defs><path d="M850.1 433.9L773 144.5c-2.5-9.4-11.1-16-20.8-16h-286c-13.6 0-23.8 12.4-21.1 25.8L503 443.7c2 10.1 10.9 17.3 21.1 17.3h305.2c14.1 0 24.4-13.4 20.8-27.1zM862.8 562.3h-308c-13.6 0-23.8 12.4-21.1 25.8l57.9 289.4c2 10.1 10.9 17.3 21.1 17.3H940c14.1 0 24.5-13.4 20.8-27.1l-77.1-289.4c-2.6-9.4-11.1-16-20.9-16zM190.4 153.3L65.1 872.1c-2.3 13.2 7.8 25.2 21.2 25.2h414.4c13.4 0 23.5-12.1 21.2-25.2L396.6 153.3c-1.8-10.3-10.8-17.8-21.2-17.8H211.6c-10.4 0-19.4 7.5-21.2 17.8z" p-id="14112" fill="#ffffff"></path></svg>