<?xml version="1.0" standalone="no"?><!DOCTYPE svg PUBLIC "-//W3C//DTD SVG 1.1//EN" "http://www.w3.org/Graphics/SVG/1.1/DTD/svg11.dtd"><svg t="1555137649476" class="icon" style="" viewBox="0 0 1024 1024" version="1.1" xmlns="http://www.w3.org/2000/svg" p-id="12461" xmlns:xlink="http://www.w3.org/1999/xlink" width="200" height="200"><defs><style type="text/css"></style></defs><path d="M201.2928 293.9648c4.6848 16.768 9.9328 34.9952 15.7952 54.656 5.8624 19.6608 12.4928 39.7056 19.8912 60.1088 7.424 20.4032 15.7952 40.6272 25.1648 60.672a527.872 527.872 0 0 0 30.4384 56.2688v430.592L0 1024V340.992l201.2928-47.0272z m87.7568-37.12c0-3.6608-0.1792-7.1168-0.5632-10.3936a87.9104 87.9104 0 0 1-0.5888-10.3936c0-32.768 6.8096-63.3856 20.48-91.8016a244.6336 244.6336 0 0 1 55.5776-74.8544c23.3984-21.504 50.7136-38.4256 81.92-50.816C477.1072 6.1952 510.6432 0 546.56 0c35.8656 0 69.4272 6.1952 100.6336 18.5856a263.5776 263.5776 0 0 1 81.92 50.816 244.608 244.608 0 0 1 55.5776 74.8544c13.6704 28.416 20.48 59.008 20.48 91.8016v13.1072c0 4.3776-0.384 8.7552-1.152 13.1328a460.1344 460.1344 0 0 1-27.52 110.8992 566.3232 566.3232 0 0 1-52.0704 102.1952 728.9344 728.9344 0 0 1-72.5504 94.5408 1116.4416 1116.4416 0 0 1-87.7824 86.8608c-5.4528 5.12-11.3152 7.68-17.5616 7.68-6.2208 0-12.0832-2.56-17.536-7.68a968.1664 968.1664 0 0 1-88.96-87.424 719.36 719.36 0 0 1-72.5504-96.1536 584.9344 584.9344 0 0 1-52.0704-104.3712 439.9616 439.9616 0 0 1-26.3424-112.0256z m257.4848-121.344c-15.616 0-30.0544 2.56-43.3152 7.68-13.2608 5.0944-24.7552 12.1856-34.5088 21.2992-9.7536 9.1136-17.5616 19.84-23.424 32.256a90.9568 90.9568 0 0 0-8.7808 39.3216c0 13.824 2.944 26.9568 8.7808 39.3472a104.96 104.96 0 0 0 23.424 32.256c9.728 9.088 21.248 16.1792 34.5088 21.2736 13.2608 5.12 27.6992 7.68 43.3152 7.68 15.616 0 30.208-2.56 43.8784-7.68 13.6448-5.0944 25.344-12.1856 35.0976-21.2992a104.96 104.96 0 0 0 23.424-32.256c5.8368-12.3648 8.7552-25.472 8.7552-39.3216 0-13.824-2.9184-26.9568-8.7552-39.3472a105.0624 105.0624 0 0 0-23.424-32.256 104.1408 104.1408 0 0 0-35.0976-21.2992 124.3904 124.3904 0 0 0-43.8784-7.6288z m-181.4016 478.6688a1191.168 1191.168 0 0 0 66.1248 63.3856c21.4528 18.944 40.7552 35.712 57.9328 50.2784 20.2752 16.768 39.3984 31.6928 57.344 44.8a2132.736 2132.736 0 0 0 31.5904-25.1136c10.1376-8.0128 21.8368-18.2272 35.0976-30.6176s28.4928-26.2144 45.6448-41.5232V1024l-293.7344-67.7632V614.1696zM1024 272.128v684.1088L731.4176 1024V605.44c4.6848-4.352 9.1648-8.9344 13.4656-13.6704 4.3008-4.736 8.7808-9.2928 13.4656-13.6448a308.224 308.224 0 0 0 43.2896-57.3952c13.2608-22.2208 25.1648-45.8752 35.712-71.0144 10.5216-25.1392 19.8912-50.2784 28.0832-75.4176 8.192-25.1392 15.4112-48.64 21.632-70.4768L1024 272.128z" fill="#ffffff" p-id="12462"></path></svg>