<?xml version="1.0" standalone="no"?><!DOCTYPE svg PUBLIC "-//W3C//DTD SVG 1.1//EN" "http://www.w3.org/Graphics/SVG/1.1/DTD/svg11.dtd"><svg t="1555638361300" class="icon" style="" viewBox="0 0 1024 1024" version="1.1" xmlns="http://www.w3.org/2000/svg" p-id="1180" xmlns:xlink="http://www.w3.org/1999/xlink" width="200" height="200"><defs><style type="text/css"></style></defs><path d="M543.521487 133.700768l-176.327199 163.277165h-228.996363a69.167937 69.167937 0 0 0-68.974808 68.974808v289.694194a69.167937 69.167937 0 0 0 68.974808 68.974808h228.996363L543.521487 887.898909c58.959666 54.600458 121.643971 81.583403 121.643972 43.647258v-841.492658c-0.02759-37.936144-62.711895-10.9532-121.643972 43.647259zM817.075576 554.943715h93.612609a44.143877 44.143877 0 1 0 0-88.287754h-93.612609a44.143877 44.143877 0 0 0 0 88.287754zM843.203233 781.070726A44.143877 44.143877 0 0 0 780.794827 843.506722L878.132076 940.816382a44.143877 44.143877 0 1 0 62.435996-62.435997zM817.268705 250.461323a44.143877 44.143877 0 0 0 31.204204-12.912084l91.957214-91.984804a44.143877 44.143877 0 0 0-62.408407-62.435996L786.036912 175.113243a44.143877 44.143877 0 0 0 31.231793 75.34808z" fill="#ffffff" p-id="1181"></path></svg>