<?xml version="1.0" standalone="no"?><!DOCTYPE svg PUBLIC "-//W3C//DTD SVG 1.1//EN" "http://www.w3.org/Graphics/SVG/1.1/DTD/svg11.dtd"><svg t="1555137421772" class="icon" style="" viewBox="0 0 1024 1024" version="1.1" xmlns="http://www.w3.org/2000/svg" p-id="2194" xmlns:xlink="http://www.w3.org/1999/xlink" width="200" height="200"><defs><style type="text/css"></style></defs><path d="M373.216937 267.556571h276.231314a85.474743 85.474743 0 0 0 85.4016-85.2992v-4.593371a77.897143 77.897143 0 0 0-0.453486-8.645486 86.454857 86.454857 0 0 0-84.948114-76.785371h-37.010286v-6.831543A85.489371 85.489371 0 0 0 527.036365 0H495.570308a85.504 85.504 0 0 0-85.372343 85.4016v6.831543h-37.024914a86.440229 86.440229 0 0 0-84.845714 76.741486c-0.292571 2.925714-0.453486 5.749029-0.453486 8.630857v4.593371a85.474743 85.474743 0 0 0 85.4016 85.357714z m501.76-196.929828h-125.805715v44.982857h125.805715a15.477029 15.477029 0 0 1 15.477028 15.477029v830.976a15.491657 15.491657 0 0 1-15.477028 15.477028H147.732137a15.506286 15.506286 0 0 1-15.477029-15.520914v-830.902857a15.491657 15.491657 0 0 1 15.477029-15.535543h125.717942V70.568229H147.732137A60.503771 60.503771 0 0 0 87.286879 130.984229v830.902857a60.503771 60.503771 0 0 0 60.445258 60.474514h727.200914a60.474514 60.474514 0 0 0 60.445257-60.430629v-830.902857a60.474514 60.474514 0 0 0-60.445257-60.416zM306.525279 458.634971h409.6a45.845943 45.845943 0 0 0 0-91.691885h-409.6a45.845943 45.845943 0 1 0 0 91.691885z m409.6 98.362515h-409.6a45.845943 45.845943 0 1 0 0 91.691885h409.6a45.845943 45.845943 0 0 0 0-91.691885z m0 190.039771h-409.6a45.845943 45.845943 0 1 0 0 91.691886h409.6a45.845943 45.845943 0 0 0 0-91.691886z m0 0" p-id="2195" fill="#ffffff"></path></svg>