<?xml version="1.0" standalone="no"?><!DOCTYPE svg PUBLIC "-//W3C//DTD SVG 1.1//EN" "http://www.w3.org/Graphics/SVG/1.1/DTD/svg11.dtd"><svg t="1555137582097" class="icon" style="" viewBox="0 0 1024 1024" version="1.1" xmlns="http://www.w3.org/2000/svg" p-id="9642" xmlns:xlink="http://www.w3.org/1999/xlink" width="200" height="200"><defs><style type="text/css"></style></defs><path d="M75.463 595.103h142.976v367.813H75.463V595.103z m244.902-136.68h142.976v504.494H320.365V458.423zM577.79 536.67h142.976v426.462H577.79V536.67z m227.772-190.888h142.976v617.35H805.562v-617.35z m71.49-285.227c-35.383 0-64.066 28.683-64.066 64.066 0 3.482 1.448 6.488 1.982 9.818l-127.915 123.92c-9.949-6.355-21.09-10.988-33.772-10.988-24.626 0-45.339 14.351-56.064 34.72L452.244 253.54c-7.965-26.32-31.467-45.853-60.389-45.853-31.231 0-56.026 22.789-61.703 52.362l-145.173 87.04c-10.749-8.152-23.497-13.864-38.028-13.864-35.383 0-64.066 28.688-64.066 64.07s28.684 64.066 64.066 64.066c31.236 0 56.039-22.797 61.707-52.378l145.152-87.031c10.749 8.164 23.505 13.872 38.044 13.872 17.206 0 32.677-6.975 44.187-18.016l167.312 33.045c11.749 13.598 28.546 22.65 47.929 22.65 31.79 0 56.994-23.574 62.022-53.939l144.701-134.721c6.113 1.938 12.291 3.844 19.047 3.844 35.383 0 64.066-28.683 64.066-64.065 0-35.383-28.684-64.067-64.066-64.067z" p-id="9643" fill="#ffffff"></path></svg>